<svg width="24" height="24" viewBox="0 0 24 24" fill="none" xmlns="http://www.w3.org/2000/svg">
<path d="M3.84884 14.7359H2.88445C2.88445 15.892 3.83775 15.9944 3.83775 15.9944H4.3255C5.3047 15.9944 5.34533 14.8458 5.34533 14.8458V8H3.84884V14.7359Z" fill="black"/>
<path d="M1.35473 10.0469H2.88446C2.88446 10.0469 2.90661 14.7093 1.8203 15.1869L1 13.6454C1 13.6454 1.48775 12.0938 1.35473 10.0469Z" fill="black"/>
<path d="M6.32083 10.0469H7.85056C7.71754 12.0938 8.20527 13.6454 8.20527 13.6454L7.38499 15.1869C6.29866 14.7093 6.32083 10.0469 6.32083 10.0469Z" fill="black"/>
<path d="M9.99271 11.457H8.99596C8.2865 11.4267 8.72992 10.5321 8.72992 10.5321L9.95662 8H11.3903L10.3606 10.0148C10.3128 10.111 10.3808 10.2251 10.486 10.2251H10.581L10.6661 10.0469H12.0997L10.8631 12.5318C10.8152 12.628 10.8833 12.742 10.9886 12.742H11.8153L11.1538 13.974H9.4985C8.78906 13.9436 9.23246 13.0491 9.23246 13.0491L9.99271 11.457Z" fill="black"/>
<path d="M9.21397 14.4705C9.21397 14.4705 9.03101 14.4875 8.90908 14.3626L8.16647 15.8295C8.16647 15.8295 8.28842 16 8.53778 16H10.3779L11.1649 14.4705H9.21397Z" fill="black"/>
<path d="M15.7209 10.0469H14.7749V14.5199H16.2086V15.9944H11.1649L11.878 14.5199H13.297V10.0469H12.3362V8.48516H15.7209V10.0469Z" fill="black"/>
<path fill-rule="evenodd" clip-rule="evenodd" d="M21.5552 11.1993H21.3811V10.1889C21.3811 9.24298 20.6336 8.47624 19.7117 8.47624H19.1351V8H17.6718V8.47624H16.7532V10.0076H17.6718V11.1993H16.2086V12.7307H17.6718V15.9944H19.1351V12.7307H21.1487C21.3465 12.7307 21.5072 12.8953 21.5072 13.0985V14.7065H20.1115C20.1115 15.4178 20.6736 15.9944 21.3669 15.9944H21.7446C22.4379 15.9944 23 15.4178 23 14.7065V12.6814C23 11.8629 22.3532 11.1993 21.5552 11.1993ZM19.1351 10.0076H19.6608C19.7865 10.0076 19.8884 10.1121 19.8884 10.2411V11.1993H19.1351V10.0076Z" fill="black"/>
<path d="M22.2537 8.48516C22.6537 8.48516 22.9779 8.81787 22.9779 9.22815C22.9779 9.63845 22.6537 9.97115 22.2537 9.97115H21.5295V9.22815C21.5295 8.81787 21.8537 8.48516 22.2537 8.48516Z" fill="black"/>
</svg>
