<svg width="24" height="24" viewBox="0 0 24 24" fill="none" xmlns="http://www.w3.org/2000/svg">
<path fill-rule="evenodd" clip-rule="evenodd" d="M13.0915 3.80516C14.5006 2.92392 14.9784 1.83281 15.28 1.14414C15.302 1.09387 15.323 1.04574 15.3435 1C15.6116 1.11557 16.0512 1.75645 16.0512 3.55301C16.0512 5.34957 15.3435 6.26361 15.3435 6.26361C15.3435 6.26361 17.1129 6.21997 19.7188 4.84527C21.3917 3.96275 22.9252 2.62846 23.4829 2.07163C23.5365 2.89112 23.6244 4.76963 23.0325 6.86246C22.4405 8.9553 21.1773 10.6237 20.6839 11.0544C20.7028 11.0563 20.7306 11.0626 20.7669 11.071C20.9378 11.1102 21.2982 11.1927 21.8099 11.0544C21.9934 11.0048 22.1723 10.9577 22.3447 10.9123L22.345 10.9122C23.0491 10.7266 23.6444 10.5697 23.9976 10.3925C23.9547 10.8443 23.4957 12.0946 22.2604 13.6074C21.025 15.1203 18.7215 15.7192 18.7215 15.7192C18.7215 15.7192 18.625 17.5582 17.0807 19.3123C14.8609 21.8338 12.8663 22.7479 10.0352 22.9685C7.20405 23.1891 3.98689 22.1175 1.96008 19.533C-0.0667321 16.9484 -0.658148 13.9235 0.834073 10.4556C2.21745 7.24069 5.62543 5.76569 8.04051 5.31805C8.48519 5.23563 8.8782 5.16985 9.23485 5.11015C10.7876 4.85025 11.6514 4.70568 13.0915 3.80516ZM10.0352 14.8997C8.6196 15.3284 7.27914 15.5196 6.85016 15.5616C6.85602 15.5704 6.86213 15.5796 6.86857 15.5893L6.86902 15.5899C7.06288 15.8818 7.51837 16.5674 8.36223 16.7908C9.55258 17.106 10.7751 16.9169 11.9654 15.9398C12.9177 15.1582 13.3917 13.9332 13.5097 13.4183C12.8877 13.7441 11.4507 14.4711 10.0352 14.8997ZM0.962759 13.9857C0.962759 13.9857 1.80298 14.7652 2.70002 15.1519C3.35808 15.4355 4.21209 15.4355 4.21209 15.4355C4.21209 15.4355 3.95472 16.4985 3.15043 16.5072C2.34614 16.5158 1.60619 16.0029 1.22013 15.2464C0.968865 14.7541 0.952033 14.2378 0.962759 13.9857Z" fill="black"/>
</svg>
