<svg width="512" height="512" viewBox="0 0 512 512" fill="none" xmlns="http://www.w3.org/2000/svg">
<path d="M102 242C102 164.68 164.692 102 242.012 102C246.474 102 250.818 102 255 102C259.488 102 264.167 102 268.983 102C346.303 102 409 164.68 409 242V349C409 382.137 382.137 409 349 409H162C128.863 409 102 382.137 102 349V242Z" fill="#4C44F3"/>
<path d="M133 230C133 192.997 162.997 163 200 163H254.5H309C346.003 163 376 192.997 376 230V279C376 316.003 346.003 346 309 346H200C162.997 346 133 316.003 133 279V230Z" fill="white"/>
<path d="M250.095 135.943L255.273 163.162C255.273 163.162 255.273 172.848 255.273 179.055C243.149 179.055 231.588 166.802 223.674 172.663C215.759 178.524 210.914 186.58 210.914 195.435L181.137 158.695C181.137 149.449 202.811 150.819 210.914 144.819C218.885 138.916 221.938 142.019 234.016 141.9L249.278 136.997L188.799 131.878L124.951 185.61V215.306L128.356 198.706C128.44 178.543 131.95 176.588 154.747 168.485L162.435 157.006C185.294 149.03 169.44 146.784 180.116 155.976L210.914 195.435C210.914 215.776 194.805 233.724 171.706 241.791L171.708 241.796C149.06 249.842 133.133 266.662 133.133 286.306V286.461L119.012 307.022V185.61L188.799 131.878L250.095 135.943Z" fill="#4C44F3"/>
<path d="M285.664 172.663C293.578 178.524 298.424 186.58 298.424 195.435L335.428 163.162C335.428 153.916 314.264 150.819 306.161 144.819C298.058 138.818 266.104 139.606 253.787 139.606C253.787 139.606 254.692 163.649 255.273 179.055C267.397 179.055 277.75 166.802 285.664 172.663Z" fill="#4C44F3"/>
<path d="M373.082 172.663C350.223 164.686 339.404 174.302 339.404 154.523L298.424 195.436C298.424 215.777 314.533 233.724 337.631 241.791L337.629 241.796C360.278 249.842 376.205 266.662 376.205 286.306H377.205C377.205 266.075 408.566 220.18 385.711 212.056L373.082 172.663Z" fill="#4C44F3"/>
<path fill-rule="evenodd" clip-rule="evenodd" d="M201.859 346H200C171.113 346 146.496 327.719 137.087 302.095C144.225 292.512 155.643 286.306 168.511 286.306C190.138 286.306 207.67 303.837 207.67 325.464C207.67 332.995 205.544 340.029 201.859 346ZM371.035 304.358C361.038 328.788 337.029 346 309 346H304.698C301.014 340.029 298.888 332.995 298.888 325.464C298.888 303.837 316.42 286.306 338.046 286.306C351.9 286.306 364.074 293.5 371.035 304.358Z" fill="#FB7494"/>
<path d="M272.821 276.885C270.523 284.08 264.618 289.269 254.5 289.269C244.382 289.269 238.288 282.723 236.179 276.885" stroke="#4C44F3" stroke-width="8" stroke-linecap="round"/>
<circle cx="210.062" cy="265.692" r="11.1923" fill="#4C44F3"/>
<circle cx="297.361" cy="265.692" r="11.1923" fill="#4C44F3"/>
</svg>
